<?xml version="1.0" encoding="UTF-8" standalone="no"?>
<svg
   viewBox="0 0 1095 1095"
   width="1095"
   height="1095"
   version="1.1"
   id="svg3"
   sodipodi:docname="javascript.svg"
   inkscape:version="1.4.4 (dcaf3e7d9e, 2026-05-05)"
   xmlns:inkscape="http://www.inkscape.org/namespaces/inkscape"
   xmlns:sodipodi="http://sodipodi.sourceforge.net/DTD/sodipodi-0.dtd"
   xmlns="http://www.w3.org/2000/svg"
   xmlns:svg="http://www.w3.org/2000/svg">
  <defs
     id="defs3" />
  <sodipodi:namedview
     id="namedview3"
     pagecolor="#ffffff"
     bordercolor="#000000"
     borderopacity="0.25"
     inkscape:showpageshadow="2"
     inkscape:pageopacity="0.0"
     inkscape:pagecheckerboard="0"
     inkscape:deskcolor="#d1d1d1"
     inkscape:zoom="0.34520548"
     inkscape:cx="257.81746"
     inkscape:cy="618.47222"
     inkscape:window-width="1067"
     inkscape:window-height="1020"
     inkscape:window-x="0"
     inkscape:window-y="0"
     inkscape:window-maximized="1"
     inkscape:current-layer="svg3" />
  <path
     d="M12.12 1079.06C12.12 722.36 12.12 365.65 12.12 8.94C369.05 8.94 725.98 8.94 1082.91 8.94C1082.91 365.65 1082.91 722.36 1082.91 1079.06C725.98 1079.06 369.05 1079.06 12.12 1079.06ZM967.89 574.5C963.62 565.47 957.84 557.61 951.57 549.89C923.29 515.04 886.77 498.64 842.5 494.81C823.52 493.16 803.9 494.31 785.39 498.8C744.29 508.75 706.56 532.77 689.44 572.9C682.71 588.66 678.96 605.37 678.22 622.5C677.69 634.81 678.79 647.38 681.11 659.47C693.04 721.8 742.42 753.94 796.72 777.76C818.89 787.49 841.53 795.92 862.73 807.75C879.83 817.29 894.77 830.99 896.96 851.5C900.67 886.31 865.4 904.36 835.5 905.18C807.33 905.96 779.41 898.57 758.06 879.47C747.1 869.66 738.68 857.37 730.5 845.26C703.43 860.67 676.36 876.09 649.28 891.5C649.51 900.95 658.64 910.18 663.97 917.53C679.82 939.38 700.66 957.31 724.44 970.04C738.74 977.68 753.7 983.19 769.36 987.22C843.93 1006.43 949.62 992.39 985.53 914.05C994.03 895.5 997.81 874.85 997.83 854.5C997.84 838.82 995.97 822.82 991.64 807.77C975.58 752.02 921.56 722.41 872.32 700.18C852.99 691.45 833.15 683.99 814.28 674.23C803.19 668.5 791.41 661.78 784.54 650.95C781.61 646.35 779.58 641.31 778.52 635.96C772 602.97 797.78 580.14 829.5 582.2C847.66 583.37 865.42 591.13 876.91 605.62C881.66 611.61 885.08 618.97 890.28 624.5C916.15 607.83 942.02 591.17 967.89 574.5ZM493.5 500.11C491.88 512.2 493.16 525.28 493.16 537.5C493.15 561.17 493.14 584.83 493.12 608.5C493.06 684.17 493.53 759.84 493.39 835.5C493.36 852.2 492.97 870.68 483.87 885.35C469.69 908.21 433.35 910 411.6 897.94C400.34 891.69 392.45 881.51 385.64 870.83C382.12 865.33 379.24 858.19 374.5 853.78C347.5 870.21 320.5 886.64 293.5 903.07C298.23 919.75 317.63 942.42 330.4 954.07C364.52 985.19 409.11 996.27 454.5 994.14C502.28 991.89 546.14 974.9 572.35 932.83C598.57 890.75 593.88 836.88 593.88 789.5C593.88 724.83 593.88 660.17 593.88 595.5C593.88 574.5 593.88 553.5 593.88 532.5C593.88 521.96 595.1 510.5 593.5 500.11C560.17 500.11 526.83 500.11 493.5 500.11Z"
     fill="#f0db4f"
     fill-rule="evenodd"
     stroke="#f0db4f"
     stroke-width="0.25"
     stroke-linejoin="round"
     id="path1" />
  <path
     d="M967.89 574.5C942.02 591.17 916.15 607.83 890.28 624.5C885.08 618.97 881.66 611.61 876.91 605.62C865.42 591.13 847.66 583.37 829.5 582.2C797.78 580.14 772 602.97 778.52 635.96C779.58 641.31 781.61 646.35 784.54 650.95C791.41 661.78 803.19 668.5 814.28 674.23C833.15 683.99 852.99 691.45 872.32 700.18C921.56 722.41 975.58 752.02 991.64 807.77C995.97 822.82 997.84 838.82 997.83 854.5C997.81 874.85 994.03 895.5 985.53 914.05C949.62 992.39 843.93 1006.43 769.36 987.22C753.7 983.19 738.74 977.68 724.44 970.04C700.66 957.31 679.82 939.38 663.97 917.53C658.64 910.18 649.51 900.95 649.28 891.5C676.36 876.09 703.43 860.67 730.5 845.26C738.68 857.37 747.1 869.66 758.06 879.47C779.41 898.57 807.33 905.96 835.5 905.18C865.4 904.36 900.67 886.31 896.96 851.5C894.77 830.99 879.83 817.29 862.73 807.75C841.53 795.92 818.89 787.49 796.72 777.76C742.42 753.94 693.04 721.8 681.11 659.47C678.79 647.38 677.69 634.81 678.22 622.5C678.96 605.37 682.71 588.66 689.44 572.9C706.56 532.77 744.29 508.75 785.39 498.8C803.9 494.31 823.52 493.16 842.5 494.81C886.77 498.64 923.29 515.04 951.57 549.89C957.84 557.61 963.62 565.47 967.89 574.5ZM493.5 500.11C526.83 500.11 560.17 500.11 593.5 500.11C595.1 510.5 593.88 521.96 593.88 532.5C593.88 553.5 593.88 574.5 593.88 595.5C593.88 660.17 593.88 724.83 593.88 789.5C593.88 836.88 598.57 890.75 572.35 932.83C546.14 974.9 502.28 991.89 454.5 994.14C409.11 996.27 364.52 985.19 330.4 954.07C317.63 942.42 298.23 919.75 293.5 903.07C320.5 886.64 347.5 870.21 374.5 853.78C379.24 858.19 382.12 865.33 385.64 870.83C392.45 881.51 400.34 891.69 411.6 897.94C433.35 910 469.69 908.21 483.87 885.35C492.97 870.68 493.36 852.2 493.39 835.5C493.53 759.84 493.06 684.17 493.12 608.5C493.14 584.83 493.15 561.17 493.16 537.5C493.16 525.28 491.88 512.2 493.5 500.11Z"
     fill="#333430"
     fill-rule="evenodd"
     stroke="#333430"
     stroke-width="0.25"
     stroke-linejoin="round"
     id="path2" />
</svg>
