<?xml version="1.0" encoding="UTF-8" standalone="no"?>
<svg
   viewBox="0 0 1095 1095"
   width="1095"
   height="1095"
   version="1.1"
   id="svg2"
   sodipodi:docname="wordpress.svg"
   inkscape:version="1.4.4 (dcaf3e7d9e, 2026-05-05)"
   xmlns:inkscape="http://www.inkscape.org/namespaces/inkscape"
   xmlns:sodipodi="http://sodipodi.sourceforge.net/DTD/sodipodi-0.dtd"
   xmlns="http://www.w3.org/2000/svg"
   xmlns:svg="http://www.w3.org/2000/svg">
  <defs
     id="defs2" />
  <sodipodi:namedview
     id="namedview2"
     pagecolor="#ffffff"
     bordercolor="#000000"
     borderopacity="0.25"
     inkscape:showpageshadow="2"
     inkscape:pageopacity="0.0"
     inkscape:pagecheckerboard="0"
     inkscape:deskcolor="#d1d1d1"
     inkscape:zoom="0.34520548"
     inkscape:cx="546.05159"
     inkscape:cy="546.05159"
     inkscape:window-width="1920"
     inkscape:window-height="1080"
     inkscape:window-x="0"
     inkscape:window-y="0"
     inkscape:window-maximized="1"
     inkscape:current-layer="svg2" />
  <path
     style="fill:#ffffff;fill-rule:evenodd"
     id="path3"
     sodipodi:type="arc"
     sodipodi:cx="547.5"
     sodipodi:cy="547.5"
     sodipodi:rx="524.32538"
     sodipodi:ry="524.32538"
     sodipodi:start="0"
     sodipodi:end="6.2730148"
     sodipodi:arc-type="slice"
     d="M 1071.8254,547.5 A 524.32538,524.32538 0 0 1 548.83316,1071.8237 524.32538,524.32538 0 0 1 23.181401,550.16632 524.32538,524.32538 0 0 1 543.50055,23.189875 524.32538,524.32538 0 0 1 1071.7983,542.16744 L 547.5,547.5 Z" />
  <path
     d="M552.8 10.5C614.91 9.41 680.92 24.39 738.68 46.78C801.05 70.95 858.71 106.17 907.92 151.56C959.96 199.55 1001.99 257.08 1032.65 320.8C1053.9 364.97 1068.99 413.08 1076.25 461.46C1085.62 523.89 1084.55 587.3 1073.76 649.44C1067.58 685.05 1055.51 720.57 1041.25 753.73C987.03 879.84 889.41 981.06 763.83 1037.37C698.43 1066.7 627.2 1082.84 555.5 1082.92C479.6 1083.01 405.83 1068.89 335.77 1039.7C283.35 1017.85 234.59 985.84 192.41 948.06C144.51 905.15 105.12 854.43 74.62 797.86C47.49 747.54 29.41 692.46 19.2 636.44C0.54 534.1 15.56 427.31 56.68 332.2C73.45 293.42 96.36 257.7 121.35 223.83C136.74 202.99 153.57 182.75 172.11 164.61C214.85 122.78 264.13 88.6 317.9 62.43C390.58 27.07 472.41 11.91 552.8 10.5ZM529.67 44.42C515.31 45.7 500.8 46.13 486.52 48.14C463.36 51.41 440.42 55.66 417.69 61.28C349.79 78.05 287.39 112.37 232.2 154.68C186.62 189.62 149.45 235.25 119.4 283.87C87.11 336.14 65.16 394.51 53.24 454.62C43.56 503.46 41.53 554.64 47.46 604.11C51.65 639.05 58.78 673.84 70.41 707.14C117.19 841.08 220.58 956.66 352.69 1010.79C420.55 1038.6 494.08 1052.27 567.5 1049.71C767.02 1042.74 941.48 915.79 1015.73 731.27C1038.23 675.36 1048.49 616.54 1050.71 556.5C1051.75 528.53 1049.09 500.06 1045.09 472.49C1015.35 267.07 853.67 98.47 651.68 54.73C613.12 46.39 569.15 40.89 529.67 44.42ZM846.69 216.5C839.11 220.17 830.64 219.38 822.58 221.16C812.53 223.39 803.27 229.4 795.61 236.09C767.54 260.58 764.48 298.52 775.25 332.3C783.64 358.6 800.66 381.47 814.4 405.09C827.29 427.24 838.38 451.55 843.7 476.7C861.24 559.68 822.87 651.26 798.14 729.56C792.04 748.87 785.46 768.03 780.17 787.59C778.24 794.72 775.57 808.86 770.5 813.92C716.83 655.76 663.17 497.61 609.5 339.45C623.61 331.81 641.47 337.55 656.63 334.28C663.79 332.73 670.41 330.33 673.88 323.37C678.54 314.02 675.06 301.07 664.06 298.48C656.34 296.66 647.32 298.3 639.5 298.8C633.17 299.2 626.83 299.21 620.5 299.67C575.97 302.87 531.15 304.79 486.5 301.8C470.85 300.75 455.16 299.83 439.5 298.78C431.32 298.23 421.81 296.15 413.79 298.38C400.12 302.18 397.66 322.84 409.11 330.4C423.32 339.81 448.44 334.98 464.92 338.5C472.68 353.13 476.78 369.68 482.4 385.18C493.29 415.27 504.34 445.26 515.11 475.39C519.05 486.4 522.78 497.5 527.14 508.36C529.89 515.18 534.34 521.9 534.04 529.5C533.76 536.67 529.81 543.2 527.29 549.75C523.16 560.52 519.8 571.7 516.22 582.66C503.13 622.75 489.53 662.68 476.31 702.75C467.97 728.04 459.58 753.33 451 778.52C446.59 791.5 444.9 807.24 436.5 818.4C429.25 808.45 427.54 795.14 423.8 783.67C415.94 759.63 407.73 735.7 399.75 711.7C372.92 630.97 345.02 550.64 318.66 469.77C309.29 441 299.85 412.19 289.77 383.67C284.71 369.36 275.96 353.94 275.95 338.5C293.5 333.14 313.4 340.03 330.36 331.87C340.03 327.22 344.83 313.57 338.03 304.5C328.54 291.83 304.7 298.37 291.48 299.72C264.93 302.43 238.17 302.47 211.5 302.96C199.81 303.17 186.91 306.46 176.12 300.5C181.07 288.6 196.41 272.7 204.97 262.42C230.41 231.89 258.17 204.12 290.96 181.47C422.7 90.43 591.3 74.03 736.61 142.89C765.44 156.55 792.68 173.16 818.06 192.47C826.7 199.04 840.13 208.16 846.69 216.5ZM940.5 336.16C946.46 345.01 950.22 355.44 954.29 365.25C962.34 384.67 970.33 404.08 976.26 424.28C1019.99 573.06 980.17 738.29 873.59 851.1C854.18 871.65 832.98 889.83 810.62 907.06C799.19 915.87 787.81 925.24 774.5 931.09C772.87 925.02 775.02 918.37 776.95 912.46C780.8 900.67 785.87 889.39 790.39 877.85C805.26 839.92 817.08 800.6 830.59 762.16C851.3 703.2 871.28 643.98 891.4 584.81C905.78 542.51 922.75 501.05 932.95 457.48C939.25 430.62 940.92 403.05 941.13 375.5C941.19 367.19 941.37 358.8 940.88 350.5C940.58 345.59 939.44 341.07 940.5 336.16ZM139.5 367.63C150.14 380.2 151.9 397.26 157.2 412.32C167.22 440.75 177.83 469.01 188.25 497.3C225.52 598.52 261.18 700.34 299.28 801.27C311.94 834.82 323.33 868.86 336.12 902.37C340.84 914.72 352.88 933.86 350.5 947.02C339.61 944.34 329.51 938.26 319.95 932.56C298.49 919.77 278.88 903.63 259.41 888.06C149.23 799.94 89.64 649.95 102.87 510.5C106.22 475.21 112.97 441.08 123.74 407.29C127.91 394.23 131 378.69 139.5 367.63ZM555.5 588.41C563.98 601.34 567.08 616.87 572.22 631.31C582.08 659.01 592.03 686.7 602.26 714.27C623.87 772.51 645.15 830.89 666.2 889.34C671.84 905.01 677.38 920.73 683.2 936.34C687.09 946.78 691.84 956.65 694.52 967.5C689.12 972.07 680.48 974.41 673.77 976.32C658.17 980.76 642.49 983.39 626.51 986.11C576.86 994.54 526.23 995.07 476.48 987.11C458.16 984.18 440.25 981.18 422.5 975.64C420.88 964.79 427.89 952.27 431.94 942.47C439.1 925.13 444.46 906.96 450.69 889.25C475.48 818.79 498.93 747.83 523.86 677.42C531.13 656.87 538.23 636.19 544.87 615.43C546.95 608.95 550.49 592.12 555.5 588.41Z"
     fill="#33373c"
     fill-rule="evenodd"
     stroke="#33373c"
     stroke-width="0.25"
     stroke-linejoin="round"
     id="path2" />
</svg>
